# xmcd CD database file generated by Grip 3.2.0
# 
# Track frame offsets:
#       150
#       12646
#       26421
#       37748
#       48035
#       60361
#       71847
#       82125
#       94951
#       103445
#       123021
#       144510
#       153103
#       166424
#       180791
#       198559
#       208283
#       221592
#       233190
# 
# Disc length: 3299 seconds
# 
# Revision: 2
# Processed by: cddbd v1.5.1PL2 Copyright (c) Steve Scherf et al.
# Submitted via: Grip 3.2.0
# 
DISCID=040ce113
DTITLE=Various Artist - 1. velký trampský zpěvník  Che - Je
DYEAR=2005
DGENRE=Country
TTITLE0=Chodím po Brodwayi
TTITLE1=Já mám doma koně
TTITLE2=Já přijdu za tebou
TTITLE3=Já vím
TTITLE4=Jackova píseň
TTITLE5=Japonečka
TTITLE6=Jarní kurýr
TTITLE7=Jaro
TTITLE8=Jdou stáda sobů
TTITLE9=Je na západ cesta dlouhá
TTITLE10=Jediná noc
TTITLE11=Jednou otec řekl mi
TTITLE12=Jedu nocí
TTITLE13=Jen ty jediná
TTITLE14=Jen ty, má Sázavo
TTITLE15=Jasse James
TTITLE16=Ještě spí chata nad řekou
TTITLE17=Jezdili jsme ve dvojici
TTITLE18=Jezero dřímá
EXTD=Vložila Agina
EXTT0=
EXTT1=
EXTT2=
EXTT3=
EXTT4=
EXTT5=
EXTT6=
EXTT7=
EXTT8=
EXTT9=
EXTT10=
EXTT11=
EXTT12=
EXTT13=
EXTT14=
EXTT15=
EXTT16=
EXTT17=
EXTT18=
PLAYORDER=
